# xmcd
#
# Track frame offsets:
#	150
#	20382
#	34327
#	49152
#	63872
#	81542
#	98407
#	111560
#	124005
#	139077
#	153675
#	170932
#	184655
#	202705
#
# Disc length: 2897
#
# Revision: 1
# Processed by: cddbd v1.5.1PL0 Copyright (c) Steve Scherf et al.
# Submitted via: VisiTrax 2.9.5.180 - For more info visit www.synapsa.com
# Normalized: r0:DSETVAR1
#
DISCID=c20b4f0e
DTITLE=Various Artist - Mr. Music Country 02-99
DYEAR=1999
DGENRE=
TTITLE0=Randy Scruggs - Travis Tritt - Amie
TTITLE1=Connie Smith - How long
TTITLE2=Perley Curtis - Crime of the centur
TTITLE3=Mark Nesler - Doing wgat's right
TTITLE4=Judy Bailey - Things to do before I die
TTITLE5=Bill Anderson - A good love and a bottle of wine
TTITLE6=Jacob Lyda - Back to Bakersfield
TTITLE7=Red Jenkins - Hank and Jack
TTITLE8=Marsha Britton - Hayride
TTITLE9=Van Warren - Sweet, sweet eyes of blue
TTITLE10=Chad Brock - Evangeline
TTITLE11=Lynns - Cry cry baby
TTITLE12=Roger Cooper - My dreams just came true
TTITLE13=Benny Berry - When the trains still ran through Dixie
EXTD=
EXTT0=
EXTT1=
EXTT2=
EXTT3=
EXTT4=
EXTT5=
EXTT6=
EXTT7=
EXTT8=
EXTT9=
EXTT10=
EXTT11=
EXTT12=
EXTT13=
PLAYORDER=
